<svg xmlns="http://www.w3.org/2000/svg" xmlns:xlink="http://www.w3.org/1999/xlink" width="70" zoomAndPan="magnify" viewBox="0 0 52.5 30.000001" height="40" preserveAspectRatio="xMidYMid meet" version="1.0"><defs><clipPath id="8d737c9a96"><path d="M 0.605469 0 L 51.410156 0 L 51.410156 29.03125 L 0.605469 29.03125 Z M 0.605469 0 " clip-rule="nonzero"/></clipPath><clipPath id="a7a94168c9"><path d="M 35 10 L 37.328125 10 L 37.328125 13 L 35 13 Z M 35 10 " clip-rule="nonzero"/></clipPath><clipPath id="8287b33a6e"><path d="M 14.828125 10 L 21 10 L 21 19 L 14.828125 19 Z M 14.828125 10 " clip-rule="nonzero"/></clipPath><clipPath id="4e6a89f74d"><path d="M 24 12 L 31 12 L 31 20.941406 L 24 20.941406 Z M 24 12 " clip-rule="nonzero"/></clipPath><clipPath id="82973921b7"><path d="M 24 7.878906 L 27 7.878906 L 27 12 L 24 12 Z M 24 7.878906 " clip-rule="nonzero"/></clipPath><clipPath id="f884d894eb"><path d="M 31 7.878906 L 34 7.878906 L 34 12 L 31 12 Z M 31 7.878906 " clip-rule="nonzero"/></clipPath></defs><g clip-path="url(#8d737c9a96)"><path fill="#ffffff" d="M 0.605469 0 L 51.410156 0 L 51.410156 29.03125 L 0.605469 29.03125 Z M 0.605469 0 " fill-opacity="1" fill-rule="nonzero"/><path fill="#ffffff" d="M 0.605469 0 L 51.410156 0 L 51.410156 29.03125 L 0.605469 29.03125 Z M 0.605469 0 " fill-opacity="1" fill-rule="nonzero"/></g><g clip-path="url(#a7a94168c9)"><path fill="#ef7d00" d="M 37.007812 10.601562 C 36.65625 10.402344 36.125 10.660156 35.820312 11.175781 C 35.515625 11.691406 35.554688 12.269531 35.90625 12.46875 C 36.257812 12.667969 36.789062 12.410156 37.09375 11.894531 C 37.398438 11.378906 37.359375 10.800781 37.007812 10.601562 " fill-opacity="1" fill-rule="nonzero"/></g><path fill="#ef7d00" d="M 36.109375 16.6875 L 36.109375 14.484375 C 36.109375 13.886719 36.039062 13.546875 35.847656 13.234375 C 35.570312 12.757812 35.09375 12.53125 34.417969 12.53125 C 33.652344 12.53125 33.101562 12.804688 32.671875 13.402344 L 32.667969 13.398438 L 32.667969 12.714844 L 30.570312 12.714844 L 30.570312 13.03125 L 30.625 13.035156 C 31.25 13.042969 31.320312 13.113281 31.320312 13.9375 L 31.320312 16.6875 C 31.320312 17.554688 31.261719 17.609375 30.605469 17.621094 L 30.558594 17.621094 L 30.558594 17.972656 L 33.433594 17.972656 L 33.433594 17.621094 L 33.375 17.621094 C 32.730469 17.609375 32.671875 17.5625 32.671875 16.6875 L 32.671875 14.703125 C 32.671875 14.386719 32.78125 13.992188 32.9375 13.710938 C 33.183594 13.296875 33.53125 13.085938 33.933594 13.085938 C 34.503906 13.085938 34.765625 13.472656 34.765625 14.542969 L 34.765625 16.6875 C 34.765625 17.542969 34.695312 17.609375 34.0625 17.621094 L 34.003906 17.621094 L 34.003906 17.972656 L 36.878906 17.972656 L 36.878906 17.621094 L 36.824219 17.621094 C 36.167969 17.609375 36.109375 17.554688 36.109375 16.6875 " fill-opacity="1" fill-rule="nonzero"/><g clip-path="url(#8287b33a6e)"><path fill="#ef7d00" d="M 18.433594 12.582031 C 18.078125 12.582031 17.78125 12.648438 17.523438 12.796875 L 17.523438 13.289062 C 17.71875 13.101562 17.953125 12.996094 18.191406 12.996094 C 18.835938 12.996094 19.441406 13.761719 19.441406 15.359375 C 19.441406 16.960938 18.816406 17.71875 18.144531 17.71875 C 17.054688 17.71875 17.035156 16.695312 16.992188 16.441406 C 16.992188 16.441406 16.984375 10.539062 16.992188 10.417969 L 14.855469 10.417969 L 14.855469 10.757812 L 14.910156 10.757812 C 15.5625 10.757812 15.621094 10.914062 15.621094 11.753906 L 15.621094 16.039062 C 15.621094 17.714844 17.410156 18.0625 18.082031 18.0625 C 19.605469 18.0625 20.878906 16.976562 20.878906 15.195312 C 20.878906 13.558594 19.835938 12.582031 18.433594 12.582031 " fill-opacity="1" fill-rule="nonzero"/></g><g clip-path="url(#4e6a89f74d)"><path fill="#ef7d00" d="M 28.183594 12.652344 C 27.566406 12.652344 27.128906 12.835938 26.707031 13.253906 L 26.707031 12.71875 L 24.574219 12.71875 L 24.574219 13.136719 C 25.109375 13.144531 25.296875 13.207031 25.324219 13.734375 L 25.324219 20.023438 C 25.300781 20.542969 25.179688 20.578125 24.628906 20.59375 L 24.574219 20.597656 L 24.574219 20.941406 L 27.464844 20.941406 L 27.464844 20.597656 L 27.410156 20.59375 C 26.980469 20.578125 26.792969 20.554688 26.710938 20.359375 L 26.710938 14.632812 C 26.855469 13.628906 27.265625 13.078125 27.863281 13.078125 C 28.507812 13.078125 28.890625 13.824219 28.890625 15.394531 C 28.890625 17.011719 28.488281 17.742188 27.746094 17.742188 C 27.589844 17.742188 27.4375 17.695312 27.296875 17.613281 L 27.296875 18.03125 C 27.5 18.097656 27.714844 18.125 27.972656 18.125 C 28.664062 18.125 29.308594 17.859375 29.699219 17.386719 C 30.097656 16.90625 30.328125 16.132812 30.328125 15.257812 C 30.328125 13.617188 29.558594 12.652344 28.183594 12.652344 " fill-opacity="1" fill-rule="nonzero"/></g><path fill="#ef7d00" d="M 23.191406 15.128906 C 23.195312 15.113281 23.195312 15.105469 23.195312 15.089844 L 23.195312 13.140625 L 24.195312 13.140625 L 24.195312 12.714844 L 23.195312 12.714844 L 23.195312 11.175781 L 22.625 11.175781 L 22.613281 11.226562 C 22.523438 11.710938 22.429688 11.980469 22.253906 12.246094 C 22.039062 12.578125 21.667969 12.71875 21.25 12.734375 L 21.035156 12.738281 L 21.035156 13.140625 L 21.761719 13.140625 L 21.761719 14.933594 C 21.761719 16.511719 21.714844 16.996094 22.015625 17.375 C 22.269531 17.691406 22.765625 18.117188 23.847656 18.117188 C 24.105469 18.117188 24.320312 18.089844 24.523438 18.023438 L 24.523438 17.605469 C 24.386719 17.6875 24.230469 17.730469 24.074219 17.730469 C 23.175781 17.730469 23.191406 17.238281 23.191406 15.128906 " fill-opacity="1" fill-rule="nonzero"/><path fill="#80715d" d="M 29.589844 9.097656 C 29.640625 9.015625 29.707031 8.945312 29.777344 8.886719 C 29.855469 8.828125 29.941406 8.78125 30.039062 8.75 C 30.136719 8.71875 30.246094 8.699219 30.363281 8.699219 C 30.488281 8.699219 30.605469 8.71875 30.707031 8.757812 C 30.816406 8.792969 30.910156 8.847656 30.984375 8.925781 C 31.066406 9 31.128906 9.085938 31.167969 9.195312 C 31.214844 9.300781 31.234375 9.421875 31.234375 9.558594 L 31.234375 11.042969 C 31.234375 11.074219 31.207031 11.097656 31.179688 11.097656 L 31.089844 11.097656 C 31.058594 11.097656 31.035156 11.074219 31.035156 11.042969 L 31.035156 9.574219 C 31.035156 9.449219 31.015625 9.34375 30.980469 9.261719 C 30.945312 9.175781 30.894531 9.109375 30.835938 9.054688 C 30.777344 9 30.703125 8.960938 30.625 8.9375 C 30.542969 8.910156 30.457031 8.894531 30.363281 8.894531 C 30.234375 8.894531 30.125 8.921875 30.03125 8.96875 C 29.933594 9.015625 29.851562 9.078125 29.785156 9.160156 C 29.722656 9.238281 29.671875 9.328125 29.636719 9.4375 C 29.605469 9.542969 29.589844 9.65625 29.589844 9.777344 L 29.589844 11.042969 C 29.589844 11.074219 29.5625 11.097656 29.53125 11.097656 L 29.441406 11.097656 C 29.414062 11.097656 29.386719 11.074219 29.386719 11.042969 L 29.386719 8.804688 C 29.386719 8.777344 29.414062 8.753906 29.441406 8.753906 L 29.53125 8.753906 C 29.5625 8.753906 29.589844 8.777344 29.589844 8.804688 " fill-opacity="1" fill-rule="nonzero"/><g clip-path="url(#82973921b7)"><path fill="#80715d" d="M 24.773438 10.667969 L 24.773438 11.042969 C 24.773438 11.074219 24.746094 11.097656 24.71875 11.097656 L 24.628906 11.097656 C 24.597656 11.097656 24.574219 11.074219 24.574219 11.042969 L 24.574219 7.9375 C 24.574219 7.90625 24.597656 7.882812 24.628906 7.882812 L 24.71875 7.882812 C 24.746094 7.882812 24.773438 7.90625 24.773438 7.9375 L 24.773438 9.171875 C 24.832031 9.066406 24.910156 8.976562 25.007812 8.898438 C 25.175781 8.765625 25.390625 8.699219 25.640625 8.699219 C 25.808594 8.699219 25.957031 8.734375 26.085938 8.804688 C 26.214844 8.871094 26.324219 8.960938 26.40625 9.074219 C 26.496094 9.1875 26.558594 9.316406 26.605469 9.464844 C 26.648438 9.613281 26.671875 9.769531 26.671875 9.929688 C 26.671875 10.101562 26.648438 10.261719 26.605469 10.414062 C 26.558594 10.558594 26.488281 10.6875 26.398438 10.800781 C 26.308594 10.90625 26.199219 10.992188 26.070312 11.054688 C 25.945312 11.117188 25.800781 11.144531 25.640625 11.144531 C 25.398438 11.144531 25.1875 11.082031 25.015625 10.945312 C 24.917969 10.867188 24.835938 10.773438 24.773438 10.667969 M 24.832031 10.328125 C 24.871094 10.453125 24.929688 10.558594 25 10.652344 C 25.078125 10.746094 25.167969 10.820312 25.277344 10.875 C 25.382812 10.929688 25.507812 10.953125 25.640625 10.953125 C 25.785156 10.953125 25.902344 10.925781 26.003906 10.875 C 26.109375 10.820312 26.195312 10.746094 26.257812 10.65625 C 26.332031 10.558594 26.382812 10.449219 26.417969 10.324219 C 26.453125 10.199219 26.472656 10.066406 26.472656 9.929688 C 26.472656 9.804688 26.457031 9.679688 26.421875 9.554688 C 26.386719 9.429688 26.339844 9.320312 26.273438 9.222656 C 26.207031 9.128906 26.121094 9.046875 26.015625 8.988281 C 25.914062 8.929688 25.792969 8.894531 25.640625 8.894531 C 25.378906 8.894531 25.171875 8.984375 25.011719 9.160156 C 24.855469 9.332031 24.773438 9.585938 24.773438 9.929688 C 24.773438 10.070312 24.792969 10.203125 24.832031 10.328125 " fill-opacity="1" fill-rule="nonzero"/></g><path fill="#80715d" d="M 28.65625 10.746094 L 28.632812 10.777344 C 28.578125 10.851562 28.507812 10.914062 28.421875 10.96875 C 28.339844 11.023438 28.246094 11.066406 28.140625 11.097656 C 28.035156 11.132812 27.917969 11.148438 27.796875 11.148438 C 27.554688 11.148438 27.359375 11.09375 27.207031 10.988281 C 27.050781 10.875 26.976562 10.707031 26.976562 10.492188 C 26.976562 10.347656 26.996094 10.226562 27.046875 10.132812 C 27.101562 10.042969 27.167969 9.96875 27.246094 9.917969 C 27.332031 9.863281 27.421875 9.828125 27.523438 9.808594 C 27.621094 9.789062 27.71875 9.773438 27.8125 9.769531 L 28.21875 9.746094 C 28.332031 9.738281 28.417969 9.722656 28.484375 9.707031 C 28.550781 9.683594 28.589844 9.65625 28.617188 9.625 C 28.640625 9.589844 28.65625 9.539062 28.65625 9.460938 C 28.65625 9.398438 28.652344 9.332031 28.640625 9.261719 C 28.628906 9.199219 28.601562 9.140625 28.558594 9.085938 C 28.523438 9.035156 28.464844 8.988281 28.382812 8.953125 C 28.304688 8.917969 28.191406 8.898438 28.042969 8.898438 C 27.8125 8.898438 27.640625 8.953125 27.519531 9.058594 C 27.402344 9.160156 27.332031 9.304688 27.316406 9.503906 C 27.316406 9.53125 27.289062 9.554688 27.261719 9.554688 L 27.171875 9.554688 C 27.140625 9.554688 27.117188 9.527344 27.117188 9.496094 C 27.121094 9.386719 27.144531 9.285156 27.1875 9.1875 C 27.230469 9.089844 27.289062 9 27.367188 8.929688 C 27.445312 8.859375 27.542969 8.800781 27.652344 8.761719 C 27.765625 8.722656 27.898438 8.703125 28.042969 8.703125 C 28.152344 8.703125 28.25 8.710938 28.34375 8.734375 C 28.441406 8.757812 28.527344 8.796875 28.605469 8.851562 C 28.679688 8.90625 28.738281 8.980469 28.785156 9.066406 C 28.828125 9.15625 28.855469 9.269531 28.859375 9.394531 L 28.859375 11.046875 C 28.859375 11.074219 28.828125 11.097656 28.800781 11.097656 L 28.710938 11.097656 C 28.683594 11.097656 28.65625 11.074219 28.65625 11.046875 M 28.65625 9.84375 C 28.636719 9.859375 28.609375 9.867188 28.585938 9.878906 C 28.519531 9.898438 28.445312 9.917969 28.359375 9.929688 C 28.277344 9.941406 28.1875 9.949219 28.089844 9.949219 C 28 9.953125 27.910156 9.957031 27.820312 9.964844 C 27.734375 9.96875 27.648438 9.980469 27.566406 9.996094 C 27.492188 10.011719 27.421875 10.039062 27.363281 10.078125 C 27.308594 10.113281 27.261719 10.164062 27.226562 10.230469 C 27.195312 10.292969 27.175781 10.378906 27.175781 10.492188 C 27.175781 10.550781 27.183594 10.609375 27.203125 10.664062 C 27.222656 10.71875 27.257812 10.765625 27.304688 10.808594 C 27.351562 10.851562 27.414062 10.886719 27.492188 10.917969 C 27.566406 10.941406 27.667969 10.957031 27.789062 10.957031 C 27.929688 10.957031 28.050781 10.933594 28.160156 10.886719 C 28.269531 10.839844 28.359375 10.78125 28.433594 10.707031 C 28.507812 10.632812 28.5625 10.542969 28.597656 10.449219 C 28.636719 10.347656 28.65625 10.246094 28.65625 10.144531 Z M 28.65625 9.84375 " fill-opacity="1" fill-rule="nonzero"/><g clip-path="url(#f884d894eb)"><path fill="#80715d" d="M 33.644531 11.054688 L 32.609375 9.648438 L 33.40625 8.832031 C 33.40625 8.832031 33.4375 8.800781 33.4375 8.785156 C 33.433594 8.777344 33.421875 8.765625 33.410156 8.765625 C 33.410156 8.765625 33.25 8.769531 33.238281 8.769531 C 33.183594 8.769531 33.148438 8.808594 33.148438 8.808594 L 31.964844 9.964844 L 31.964844 7.933594 C 31.964844 7.902344 31.9375 7.878906 31.910156 7.878906 L 31.800781 7.878906 C 31.773438 7.878906 31.746094 7.902344 31.746094 7.933594 L 31.746094 11.042969 C 31.746094 11.074219 31.773438 11.097656 31.800781 11.097656 L 31.910156 11.097656 C 31.9375 11.097656 31.964844 11.074219 31.964844 11.042969 L 31.964844 10.25 L 32.4375 9.804688 L 33.347656 11.0625 C 33.363281 11.082031 33.375 11.097656 33.421875 11.097656 C 33.464844 11.097656 33.613281 11.09375 33.613281 11.09375 C 33.625 11.09375 33.640625 11.085938 33.648438 11.078125 C 33.652344 11.070312 33.648438 11.0625 33.644531 11.054688 " fill-opacity="1" fill-rule="nonzero"/></g></svg>